<svg width="118" height="32" viewBox="0 0 118 32" fill="none" xmlns="http://www.w3.org/2000/svg">
<path d="M39.152 23V11.08H47.072V13H41.328V16.056H46.752V17.976H41.328V21.08H47.072V23H39.152ZM48.6676 23V11.08H53.0996C53.9103 11.08 54.625 11.2293 55.2436 11.528C55.873 11.816 56.3636 12.2427 56.7156 12.808C57.0676 13.3627 57.2436 14.04 57.2436 14.84C57.2436 15.6613 57.0463 16.36 56.6516 16.936C56.2676 17.512 55.745 17.9387 55.0836 18.216L57.8196 23H55.3556L52.4276 17.768L53.8356 18.6H50.8436V23H48.6676ZM50.8436 16.68H53.1316C53.5263 16.68 53.8676 16.6053 54.1556 16.456C54.4436 16.296 54.6676 16.0773 54.8276 15.8C54.9876 15.5227 55.0676 15.2027 55.0676 14.84C55.0676 14.4667 54.9876 14.1467 54.8276 13.88C54.6676 13.6027 54.4436 13.3893 54.1556 13.24C53.8676 13.08 53.5263 13 53.1316 13H50.8436V16.68ZM64.8938 23.192C64.0404 23.192 63.2511 23.0373 62.5258 22.728C61.8004 22.4187 61.1658 21.9867 60.6218 21.432C60.0778 20.8773 59.6511 20.2267 59.3418 19.48C59.0431 18.7333 58.8938 17.9173 58.8938 17.032C58.8938 16.1467 59.0378 15.3307 59.3258 14.584C59.6244 13.8267 60.0404 13.176 60.5738 12.632C61.1178 12.0773 61.7524 11.6507 62.4778 11.352C63.2031 11.0427 63.9924 10.888 64.8458 10.888C65.6991 10.888 66.4618 11.032 67.1337 11.32C67.8164 11.608 68.3924 11.992 68.8618 12.472C69.3311 12.9413 69.6671 13.4587 69.8698 14.024L67.9338 14.952C67.7098 14.3333 67.3311 13.832 66.7978 13.448C66.2644 13.064 65.6138 12.872 64.8458 12.872C64.0991 12.872 63.4378 13.048 62.8618 13.4C62.2964 13.752 61.8538 14.2373 61.5338 14.856C61.2244 15.4747 61.0698 16.2 61.0698 17.032C61.0698 17.864 61.2298 18.5947 61.5498 19.224C61.8804 19.8427 62.3338 20.328 62.9098 20.68C63.4858 21.032 64.1471 21.208 64.8938 21.208C65.5018 21.208 66.0618 21.0907 66.5738 20.856C67.0858 20.6107 67.4964 20.2693 67.8058 19.832C68.1151 19.384 68.2698 18.856 68.2698 18.248V17.336L69.2618 18.2H64.8458V16.36H70.4458V17.56C70.4458 18.4773 70.2911 19.288 69.9818 19.992C69.6724 20.696 69.2511 21.288 68.7178 21.768C68.1951 22.2373 67.6031 22.5947 66.9418 22.84C66.2804 23.0747 65.5978 23.192 64.8938 23.192ZM78.0396 23.192C77.165 23.192 76.349 23.0373 75.5916 22.728C74.8343 22.4187 74.173 21.9867 73.6076 21.432C73.0423 20.8773 72.5996 20.2267 72.2796 19.48C71.9703 18.7227 71.8156 17.9067 71.8156 17.032C71.8156 16.1467 71.9703 15.3307 72.2796 14.584C72.589 13.8373 73.0263 13.1867 73.5916 12.632C74.157 12.0773 74.8183 11.6507 75.5756 11.352C76.333 11.0427 77.1543 10.888 78.0396 10.888C78.925 10.888 79.7463 11.0427 80.5036 11.352C81.261 11.6613 81.9223 12.0933 82.4876 12.648C83.053 13.192 83.4903 13.8373 83.7996 14.584C84.1196 15.3307 84.2796 16.1467 84.2796 17.032C84.2796 17.9067 84.1196 18.7227 83.7996 19.48C83.4796 20.2267 83.037 20.8773 82.4716 21.432C81.9063 21.9867 81.245 22.4187 80.4876 22.728C79.741 23.0373 78.925 23.192 78.0396 23.192ZM78.0396 21.208C78.6263 21.208 79.165 21.1067 79.6556 20.904C80.1463 20.6907 80.573 20.3973 80.9356 20.024C81.309 19.6507 81.5916 19.208 81.7836 18.696C81.9863 18.184 82.0876 17.6293 82.0876 17.032C82.0876 16.4347 81.9863 15.8853 81.7836 15.384C81.5916 14.872 81.309 14.4293 80.9356 14.056C80.573 13.672 80.1463 13.3787 79.6556 13.176C79.165 12.9733 78.6263 12.872 78.0396 12.872C77.4636 12.872 76.9303 12.9733 76.4396 13.176C75.949 13.3787 75.517 13.672 75.1436 14.056C74.781 14.4293 74.4983 14.872 74.2956 15.384C74.093 15.8853 73.9916 16.4347 73.9916 17.032C73.9916 17.6293 74.093 18.184 74.2956 18.696C74.4983 19.208 74.781 19.6507 75.1436 20.024C75.517 20.3973 75.949 20.6907 76.4396 20.904C76.9303 21.1067 77.4636 21.208 78.0396 21.208ZM86.2145 23V11.08H90.6625C91.4732 11.08 92.1878 11.2293 92.8065 11.528C93.4358 11.816 93.9265 12.2427 94.2785 12.808C94.6305 13.3627 94.8065 14.04 94.8065 14.84C94.8065 15.6293 94.6252 16.3067 94.2625 16.872C93.9105 17.4267 93.4252 17.8533 92.8065 18.152C92.1878 18.4507 91.4732 18.6 90.6625 18.6H88.3905V23H86.2145ZM88.3905 16.68H90.6945C91.0892 16.68 91.4305 16.6053 91.7185 16.456C92.0065 16.296 92.2305 16.0773 92.3905 15.8C92.5505 15.5227 92.6305 15.2027 92.6305 14.84C92.6305 14.4667 92.5505 14.1467 92.3905 13.88C92.2305 13.6027 92.0065 13.3893 91.7185 13.24C91.4305 13.08 91.0892 13 90.6945 13H88.3905V16.68ZM94.6604 23L98.7724 11.08H101.588L105.7 23H103.332L102.484 20.44H97.8764L97.0124 23H94.6604ZM98.5004 18.52H101.86L99.8764 12.584H100.484L98.5004 18.52ZM107.027 23V11.08H110.915C112.174 11.08 113.267 11.336 114.195 11.848C115.134 12.3493 115.859 13.048 116.371 13.944C116.883 14.8293 117.139 15.8587 117.139 17.032C117.139 18.1947 116.883 19.2293 116.371 20.136C115.859 21.032 115.134 21.736 114.195 22.248C113.267 22.7493 112.174 23 110.915 23H107.027ZM109.203 21.08H110.963C111.774 21.08 112.472 20.9147 113.059 20.584C113.656 20.2427 114.12 19.7733 114.451 19.176C114.782 18.568 114.947 17.8533 114.947 17.032C114.947 16.2 114.782 15.4853 114.451 14.888C114.12 14.2907 113.656 13.8267 113.059 13.496C112.472 13.1653 111.774 13 110.963 13H109.203V21.08Z" fill="#575567"/>
<path d="M10.1797 21.8431L16.0311 31.9998L27.336 27.2921L16.0166 24.248L10.1797 21.8431Z" fill="#474554"/>
<path d="M10.1562 10.1786L12.651 9.1397L15.9695 0L10.1562 10.1786Z" fill="#6D6B7D"/>
<path d="M27.2914 4.66487L15.9688 0L12.6504 9.13969L15.9834 7.75184L27.2914 4.66487Z" fill="#575567"/>
<path d="M15.9844 7.75188L17.7467 8.47782L25.9887 5.02087L15.9844 7.75188Z" fill="#363442"/>
<path d="M21.8438 21.8213L32.0004 15.9698L22.6871 19.7741L21.8438 21.8213Z" fill="#6D6B7D"/>
<path d="M24.2472 15.9845L22.6855 19.7742L31.999 15.9699L27.2913 4.66492L24.2472 15.9845Z" fill="#575567"/>
<path d="M16.0156 24.2481L27.335 27.2923L18.0222 23.4126L16.0156 24.2481Z" fill="#575567"/>
<path d="M21.8447 21.8213L18.0234 23.4126L27.3364 27.2922L32.0014 15.9698L21.8447 21.8213Z" fill="#474554"/>
<path d="M7.75186 16.0154L4.66503 4.70764L0 16.03L10.064 21.5681L7.75186 16.0154Z" fill="#474554"/>
<path d="M10.1787 21.8433L10.064 21.5681L0 16.03L4.70762 27.335L16.0301 32L10.1787 21.8433Z" fill="#43424F"/>
<path d="M7.75089 16.0154L8.61371 13.9212L4.66406 4.70764L7.75089 16.0154Z" fill="#575567"/>
<path d="M15.9689 0L4.66406 4.70762L8.61371 13.9212L10.1557 10.1786L15.9689 0Z" fill="#474554"/>
<path d="M24.2479 15.9844L27.2922 4.66492C27.2922 4.66492 24.5872 11.7897 23.6055 14.4419L24.2479 15.9844Z" fill="#363442"/>
<path d="M17.7461 8.47774L21.8207 10.1565L23.6052 14.4417C24.5868 11.7895 27.2917 4.66467 27.2917 4.66467L25.988 5.0205L17.7461 8.47774Z" fill="#474554"/>
</svg>
