<svg width="118" height="36" viewBox="0 0 118 36" fill="none" xmlns="http://www.w3.org/2000/svg">
<path fill-rule="evenodd" clip-rule="evenodd" d="M15.6891 6.66449C14.9306 6.93397 15.1951 7.66941 15.9596 7.44933C16.7994 7.20784 18.3487 6.82311 18.4508 6.79676C22.1461 5.84618 31.0807 3.57234 32.7436 8.68366C32.9697 9.37849 33.0016 10.0887 32.7809 10.7896C31.9379 13.464 27.7723 14.8789 25.4084 15.565L25.4024 15.5666L16.0925 17.9124L13.9866 14.7983L24.5149 12.1463C25.8985 11.7434 27.4473 11.2369 28.6724 10.4509C30.1734 9.48771 29.0214 8.91418 27.9122 8.76928C25.1066 8.40266 21.8788 9.25665 19.1605 9.95587C17.5024 10.3823 15.1243 10.8785 13.5212 10.0892C11.8763 9.27915 11.0547 6.79786 12.0706 5.17605C12.9805 3.72273 15.0639 3.15413 16.6029 2.79245L18.7993 2.19531L20.8904 5.28856C19.1286 5.81983 17.4426 6.16395 15.6891 6.66504V6.66449Z" fill="#575567"/>
<path fill-rule="evenodd" clip-rule="evenodd" d="M16.0919 17.9124L11.025 19.189L21.3596 25.7043L20.2438 19.9431L23.567 19.1056L26.2454 32.9303L2.19531 17.7681L13.986 14.7983L16.0919 17.9124Z" fill="#575567"/>
<path d="M42.2116 20.0963C42.2116 19.9058 42.194 19.7318 42.1594 19.5754C42.1227 19.4149 42.0463 19.2662 41.9371 19.1429C41.8285 19.0112 41.6682 18.8795 41.4552 18.7472C41.2478 18.6155 40.9761 18.4783 40.6402 18.3367C40.2467 18.1735 39.8586 17.9974 39.4767 17.8087C39.1149 17.6269 38.7743 17.4054 38.4613 17.1485C38.1655 16.906 37.9211 16.6069 37.7424 16.2687C37.57 15.9268 37.4833 15.5256 37.4833 15.0662C37.4833 14.6161 37.5651 14.2083 37.7281 13.8417C37.8924 13.4799 38.1354 13.1592 38.4394 12.9032C38.7554 12.6334 39.1202 12.4266 39.514 12.294C39.9289 12.1524 40.3905 12.0816 40.8998 12.0816C41.5914 12.0816 42.189 12.2237 42.6929 12.5069C43.1879 12.7767 43.5964 13.1811 43.8712 13.6732C44.1528 14.1672 44.2938 14.7336 44.2938 15.3741H42.1298C42.1298 15.0711 42.0853 14.8044 41.9964 14.575C41.922 14.3532 41.7792 14.1607 41.5886 14.025C41.4009 13.8933 41.1589 13.8274 40.8625 13.8274C40.5859 13.8274 40.3565 13.8834 40.1732 13.9954C39.9975 14.1005 39.858 14.2565 39.7731 14.4427C39.6891 14.6288 39.6468 14.839 39.6468 15.0739C39.6468 15.2495 39.6891 15.4086 39.7731 15.5502C39.862 15.6875 39.9833 15.8115 40.1364 15.924C40.2895 16.0316 40.4701 16.1364 40.6775 16.2396C40.8899 16.3422 41.1221 16.4427 41.374 16.5398C41.8625 16.7308 42.2955 16.9405 42.6709 17.171C43.0463 17.3954 43.3597 17.6495 43.6122 17.9333C43.8621 18.2084 44.056 18.5296 44.183 18.8789C44.3109 19.2307 44.3751 19.632 44.3751 20.0814C44.3751 20.526 44.296 20.9321 44.138 21.2988C43.9848 21.6605 43.7604 21.9738 43.4634 22.2373C43.1671 22.4963 42.8092 22.6967 42.3894 22.8388C41.9739 22.9804 41.5096 23.0512 40.9959 23.0512C40.497 23.0512 40.025 22.9826 39.5804 22.8459C39.1499 22.7119 38.7497 22.4953 38.4021 22.2082C38.0662 21.9195 37.8022 21.5551 37.6095 21.1155C37.4164 20.6709 37.3203 20.1451 37.3203 19.5386H39.4915C39.4915 19.8614 39.5239 20.138 39.5881 20.3674C39.6523 20.5924 39.7511 20.7735 39.8845 20.9102C40.0178 21.0419 40.1809 21.1423 40.3735 21.211C40.5711 21.2741 40.7961 21.3059 41.048 21.3059C41.3345 21.3059 41.5617 21.2521 41.7297 21.1445C41.9026 21.037 42.026 20.8932 42.1001 20.7121C42.1742 20.5309 42.2116 20.3262 42.2116 20.0963ZM48.0951 12.2281V22.9047H45.9387V12.2281H48.0951ZM57.2771 17.295V21.6945C57.124 21.8558 56.899 22.0441 56.6026 22.2598C56.3112 22.4694 55.9281 22.6549 55.4539 22.8163C54.9846 22.9727 54.4111 23.0512 53.7349 23.0512C53.1367 23.0512 52.5934 22.9579 52.1049 22.7724C51.6278 22.5917 51.199 22.3032 50.8519 21.9294C50.5061 21.5479 50.2421 21.0737 50.0588 20.5068C49.8766 19.9349 49.7844 19.2576 49.7844 18.4761V16.6573C49.7844 15.885 49.8717 15.2127 50.0446 14.6408C50.2224 14.064 50.4792 13.5849 50.8151 13.2034C51.1419 12.8285 51.5534 12.5369 52.0154 12.3527C52.4847 12.1672 53.0138 12.0745 53.6016 12.0745C54.4117 12.0745 55.0763 12.2089 55.5949 12.4779C56.1092 12.7373 56.5252 13.1568 56.7804 13.6732C57.0521 14.2007 57.2151 14.8488 57.2694 15.6161H55.1723C55.1378 15.1661 55.0615 14.8148 54.9429 14.5601C54.8293 14.306 54.6685 14.1249 54.461 14.0173C54.2536 13.9054 53.9841 13.8489 53.6532 13.8489C53.3667 13.8489 53.1169 13.9004 52.9045 14.0025C52.6921 14.1008 52.5149 14.2621 52.3711 14.4866C52.2284 14.7116 52.1219 15.0003 52.0528 15.3521C51.9836 15.7039 51.9485 16.1342 51.9485 16.6424V18.4755C51.9485 18.9794 51.9885 19.4097 52.0676 19.7664C52.1466 20.1232 52.2624 20.414 52.4155 20.6391C52.5736 20.8641 52.7712 21.0276 53.0083 21.1303C53.2503 21.228 53.5352 21.2768 53.8606 21.2768C54.1224 21.2768 54.3326 21.2494 54.4907 21.1961C54.6488 21.1423 54.7744 21.0864 54.8688 21.0276C54.9676 20.964 55.0489 20.9151 55.1131 20.8806V18.9157H53.5642V17.295H57.2771ZM59.6113 12.2281H61.5158L63.7166 19.5315L65.9103 12.2287H67.5925L64.5245 22.9047H62.9016L59.6113 12.2281ZM58.8408 12.2281H60.6563L60.9379 19.2675V22.9047H58.8408V12.2281ZM66.7627 12.2281H68.5854V22.9047H66.4959V19.2675L66.7627 12.2281ZM74.3954 14.1348L72.076 22.9047H69.7862L73.1577 12.2287H74.588L74.3954 14.1348ZM76.2257 22.9047L73.8915 14.1348L73.6764 12.2287H75.1292L78.5309 22.9047H76.2257ZM76.3075 18.9229V20.7049H71.4388V18.9229H76.3075ZM82.3398 20.6242L84.3848 12.2287H86.7266L83.5994 22.9047H82.0209L82.3398 20.6242ZM80.5906 12.2281L82.6285 20.6237L82.9622 22.9041H81.376L78.2712 12.2281H80.5906ZM93.9444 21.1303V22.9047H89.2535V21.1303H93.9444ZM89.928 12.2281V22.9047H87.7568V12.2281H89.928ZM93.3149 16.5546V18.278H89.2535V16.5546H93.3149ZM93.9296 12.2287V14.0102H89.2535V12.2287H93.9296ZM95.2193 12.2281H98.6798C99.4015 12.2281 100.016 12.3505 100.525 12.5953C101.019 12.8257 101.429 13.2052 101.696 13.6804C101.968 14.1595 102.103 14.7506 102.103 15.4548C102.103 16.0316 102.024 16.525 101.866 16.9361C101.721 17.3222 101.491 17.6706 101.192 17.9553C100.887 18.2327 100.532 18.4513 100.147 18.6001L99.4876 18.9893H96.6793L96.6716 17.2072H98.6205C98.9169 17.2072 99.1616 17.1435 99.3543 17.0167C99.5519 16.885 99.6979 16.7012 99.7917 16.4668C99.8905 16.227 99.9399 15.9487 99.9399 15.6309C99.9399 15.2934 99.8954 15.0053 99.8065 14.7654C99.7226 14.5212 99.5864 14.3351 99.3987 14.2083C99.216 14.0766 98.9761 14.0108 98.6798 14.0108H97.3905V22.9047H95.2193V12.2281ZM100.118 22.9047L98.1392 18.1462L100.414 18.1386L102.437 22.802V22.9047H100.118ZM108.18 20.0963C108.18 19.9058 108.163 19.7318 108.129 19.5754C108.092 19.4149 108.015 19.2662 107.906 19.1429C107.798 19.0112 107.637 18.8795 107.424 18.7472C107.217 18.6155 106.945 18.4783 106.609 18.3367C106.216 18.1735 105.828 17.9974 105.446 17.8087C105.084 17.6269 104.743 17.4054 104.43 17.1485C104.135 16.9058 103.89 16.6068 103.711 16.2687C103.539 15.9268 103.452 15.5256 103.452 15.0662C103.452 14.6161 103.534 14.2083 103.697 13.8417C103.861 13.48 104.105 13.1594 104.409 12.9032C104.725 12.6333 105.089 12.4265 105.483 12.294C105.898 12.1524 106.36 12.0816 106.868 12.0816C107.56 12.0816 108.158 12.2237 108.662 12.5069C109.157 12.7767 109.565 13.1811 109.84 13.6732C110.122 14.1672 110.263 14.7336 110.263 15.3741H108.099C108.099 15.0711 108.054 14.8044 107.966 14.575C107.891 14.3532 107.748 14.1607 107.558 14.025C107.37 13.8933 107.128 13.8274 106.832 13.8274C106.555 13.8274 106.325 13.8834 106.142 13.9954C105.967 14.1005 105.827 14.2565 105.742 14.4427C105.656 14.6417 105.613 14.8569 105.617 15.0739C105.617 15.2495 105.658 15.4086 105.742 15.5502C105.831 15.6875 105.952 15.8115 106.106 15.924C106.259 16.0316 106.439 16.1364 106.646 16.2396C106.859 16.3422 107.091 16.4427 107.343 16.5398C107.832 16.7308 108.264 16.9405 108.64 17.171C109.015 17.3954 109.329 17.6495 109.581 17.9333C109.831 18.2084 110.025 18.5296 110.152 18.8789C110.28 19.2307 110.344 19.632 110.344 20.0814C110.344 20.526 110.265 20.9321 110.107 21.2988C109.956 21.6582 109.725 21.979 109.433 22.2373C109.136 22.4963 108.778 22.6967 108.358 22.8388C107.943 22.9804 107.479 23.0512 106.965 23.0512C106.486 23.0541 106.008 22.9849 105.55 22.8459C105.119 22.7119 104.719 22.4953 104.371 22.2082C104.035 21.9195 103.771 21.5551 103.578 21.1155C103.385 20.6709 103.289 20.1451 103.289 19.5386H105.461C105.461 19.8614 105.493 20.138 105.557 20.3674C105.621 20.5924 105.72 20.7735 105.854 20.9102C105.987 21.0419 106.15 21.1423 106.343 21.211C106.54 21.2741 106.765 21.3059 107.017 21.3059C107.304 21.3059 107.531 21.2521 107.699 21.1445C107.872 21.037 107.995 20.8932 108.069 20.7121C108.143 20.5309 108.18 20.3262 108.18 20.0963ZM117.999 21.1303V22.9047H113.308V21.1303H117.999ZM113.983 12.2281V22.9047H111.812V12.2281H113.983ZM117.369 16.5546V18.278H113.308V16.5546H117.369ZM117.985 12.2287V14.0102H113.308V12.2287H117.985Z" fill="#575567"/>
</svg>
