<svg width="157" height="16" viewBox="0 0 157 16" fill="none" xmlns="http://www.w3.org/2000/svg">
<g clip-path="url(#clip0_349_12763)">
<path d="M25.7174 12.5811C24.8948 12.5811 24.1658 12.4342 23.5306 12.1405C22.8954 11.8468 22.3956 11.4167 22.031 10.8502C21.677 10.2733 21.5 9.57573 21.5 8.75753V8.36415H23.1714V8.75753C23.1714 9.53377 23.4004 10.116 23.8586 10.5041C24.3272 10.8922 24.9468 11.0863 25.7174 11.0863C26.4984 11.0863 27.0868 10.9237 27.4826 10.5985C27.8782 10.2628 28.0762 9.83273 28.0762 9.30823C28.0762 8.96207 27.9824 8.67885 27.795 8.45857C27.6076 8.23829 27.342 8.06519 26.9984 7.93933C26.6546 7.80295 26.2434 7.67707 25.7644 7.56169L25.1864 7.42007C24.4886 7.25225 23.8794 7.04769 23.3588 6.80643C22.8486 6.55467 22.4528 6.22425 22.1716 5.81515C21.8904 5.40605 21.75 4.88155 21.75 4.24167C21.75 3.59131 21.9062 3.03535 22.2186 2.57381C22.5414 2.11225 22.984 1.75561 23.5462 1.50385C24.1086 1.2521 24.7698 1.12622 25.53 1.12622C26.2902 1.12622 26.967 1.25734 27.5606 1.51959C28.1646 1.78183 28.6384 2.16995 28.9822 2.68395C29.3258 3.19795 29.4976 3.84307 29.4976 4.61931V5.18575H27.8262V4.61931C27.8262 4.14727 27.7272 3.76439 27.5294 3.47069C27.342 3.17697 27.0764 2.96193 26.7328 2.82557C26.3892 2.68919 25.9882 2.62101 25.53 2.62101C24.8636 2.62101 24.3428 2.76263 23.968 3.04585C23.6036 3.31857 23.4212 3.70145 23.4212 4.19447C23.4212 4.53015 23.4994 4.80813 23.6556 5.02841C23.8222 5.23821 24.0618 5.41129 24.3742 5.54765C24.6866 5.68403 25.077 5.80465 25.5456 5.90955L26.1236 6.05117C26.8318 6.20851 27.4566 6.41307 27.998 6.66481C28.5396 6.90609 28.9664 7.23651 29.279 7.65609C29.5914 8.07569 29.7476 8.61591 29.7476 9.27677C29.7476 9.93763 29.5808 10.5146 29.2476 11.0076C28.9248 11.5006 28.4614 11.8887 27.8574 12.172C27.2534 12.4447 26.5402 12.5811 25.7174 12.5811Z" fill="#575567"/>
<path d="M31.5664 16V4.60358H33.144V5.72074H33.394C33.5918 5.37458 33.8886 5.06514 34.2842 4.7924C34.6904 4.51966 35.2684 4.3833 36.0182 4.3833C36.6638 4.3833 37.2522 4.54064 37.7832 4.85534C38.3248 5.17004 38.7568 5.62634 39.0798 6.22426C39.413 6.81168 39.5796 7.52498 39.5796 8.36416V8.60018C39.5796 9.43936 39.4182 10.1579 39.0954 10.7558C38.7726 11.3433 38.3404 11.7943 37.7988 12.109C37.2574 12.4237 36.6638 12.5811 36.0182 12.5811C35.5182 12.5811 35.0966 12.5181 34.7528 12.3922C34.4092 12.2664 34.1332 12.109 33.925 11.9202C33.7168 11.7209 33.5502 11.5163 33.4252 11.3065H33.1752V15.0483L31.5664 16ZM35.5496 11.1649C36.2576 11.1649 36.8356 10.9394 37.2834 10.4883C37.7312 10.0373 37.955 9.39216 37.955 8.55298V8.41138C37.955 7.58268 37.726 6.9428 37.2678 6.49174C36.82 6.04068 36.2472 5.81516 35.5496 5.81516C34.8622 5.81516 34.2894 6.04068 33.8312 6.49174C33.3834 6.9428 33.1596 7.58268 33.1596 8.41138V8.55298C33.1596 9.39216 33.3834 10.0373 33.8312 10.4883C34.2894 10.9394 34.8622 11.1649 35.5496 11.1649Z" fill="#575567"/>
<path d="M45.1023 12.5811C44.3213 12.5811 43.6393 12.4185 43.0561 12.0933C42.4729 11.7576 42.0147 11.2908 41.6815 10.6929C41.3587 10.0845 41.1973 9.38168 41.1973 8.58446V8.39564C41.1973 7.58792 41.3587 6.88512 41.6815 6.2872C42.0043 5.67878 42.4521 5.212 43.0249 4.8868C43.6081 4.55114 44.2797 4.3833 45.0399 4.3833C45.7793 4.3833 46.4249 4.55114 46.9769 4.8868C47.5391 5.212 47.9765 5.6683 48.2889 6.25572C48.6013 6.84316 48.7575 7.53024 48.7575 8.31696V8.93062H42.8375C42.8583 9.61246 43.0821 10.1579 43.5091 10.567C43.9465 10.9656 44.4879 11.1649 45.1337 11.1649C45.7377 11.1649 46.1907 11.0286 46.4925 10.7558C46.8051 10.4831 47.0445 10.1684 47.2111 9.81176L48.5389 10.5041C48.3931 10.7978 48.1795 11.1072 47.8985 11.4324C47.6277 11.7576 47.2685 12.0303 46.8207 12.2506C46.3729 12.4709 45.8001 12.5811 45.1023 12.5811ZM42.8531 7.68758H47.1175C47.0757 7.10016 46.8675 6.64384 46.4925 6.31866C46.1177 5.983 45.6283 5.81516 45.0243 5.81516C44.4203 5.81516 43.9257 5.983 43.5403 6.31866C43.1655 6.64384 42.9363 7.10016 42.8531 7.68758Z" fill="#575567"/>
<path d="M54.2723 12.5811C53.5329 12.5811 52.8613 12.4237 52.2573 12.109C51.6637 11.7943 51.1899 11.338 50.8359 10.7401C50.4921 10.1422 50.3203 9.42364 50.3203 8.58446V8.3799C50.3203 7.54072 50.4921 6.82742 50.8359 6.24C51.1899 5.64208 51.6637 5.18576 52.2573 4.87108C52.8613 4.5459 53.5329 4.3833 54.2723 4.3833C55.0117 4.3833 55.6417 4.51966 56.1623 4.7924C56.6831 5.06514 57.0995 5.42704 57.4119 5.8781C57.7347 6.32916 57.9431 6.82742 58.0367 7.37288L56.4747 7.70332C56.4227 7.35714 56.3133 7.04246 56.1467 6.75924C55.9801 6.476 55.7457 6.25048 55.4439 6.08264C55.1419 5.9148 54.7617 5.83088 54.3035 5.83088C53.8557 5.83088 53.4497 5.93578 53.0851 6.14558C52.7311 6.34488 52.4499 6.6386 52.2417 7.02672C52.0333 7.40436 51.9293 7.8659 51.9293 8.41138V8.55298C51.9293 9.09846 52.0333 9.56524 52.2417 9.95336C52.4499 10.3415 52.7311 10.6352 53.0851 10.8345C53.4497 11.0338 53.8557 11.1335 54.3035 11.1335C54.9803 11.1335 55.4959 10.9604 55.8499 10.6142C56.2039 10.2576 56.4279 9.80652 56.5217 9.26104L58.0837 9.62294C57.9587 10.1579 57.7347 10.6509 57.4119 11.102C57.0995 11.5531 56.6831 11.915 56.1623 12.1877C55.6417 12.4499 55.0117 12.5811 54.2723 12.5811Z" fill="#575567"/>
<path d="M62.538 12.3608C62.0692 12.3608 61.6944 12.2192 61.4132 11.936C61.1424 11.6528 61.0072 11.2751 61.0072 10.8031V5.97255H58.8828V4.60363H61.0072V2.48117L62.616 1.54663V4.60363H64.9122V5.97255H62.616V10.5199C62.616 10.8346 62.7618 10.9919 63.0534 10.9919H64.6622V12.3608H62.538Z" fill="#575567"/>
<path d="M66.8027 12.3608V4.6036H68.3803V5.51622H68.6303C68.7553 5.19104 68.9531 4.95502 69.2239 4.80816C69.5051 4.65082 69.8487 4.57214 70.2547 4.57214H71.1763V6.03546H70.1923C69.6717 6.03546 69.2447 6.18232 68.9115 6.47602C68.5781 6.75926 68.4115 7.19982 68.4115 7.79774V12.3608H66.8027Z" fill="#575567"/>
<path d="M75.7958 12.5024C75.2128 12.5024 74.692 12.3713 74.2338 12.1091C73.7756 11.8468 73.4164 11.4744 73.156 10.9919C72.8958 10.5094 72.7656 9.93244 72.7656 9.2611V4.60364H74.3744V9.15096C74.3744 9.8223 74.541 10.3206 74.8742 10.6458C75.2076 10.9604 75.671 11.1178 76.2646 11.1178C76.9206 11.1178 77.4464 10.8975 77.8422 10.4569C78.2482 10.0059 78.4514 9.36076 78.4514 8.52158V4.60364H80.0602V12.3608H78.4826V11.1965H78.2326C78.0868 11.5112 77.8266 11.8101 77.4516 12.0933C77.0768 12.3661 76.5248 12.5024 75.7958 12.5024Z" fill="#575567"/>
<path d="M82.4395 12.3608V4.60366H84.0171V5.51628H84.2671C84.4129 5.24354 84.6471 5.00228 84.9699 4.79248C85.2927 4.58268 85.7301 4.47778 86.2821 4.47778C86.8549 4.47778 87.3131 4.59842 87.6567 4.83968C88.0107 5.07046 88.2763 5.36942 88.4533 5.73656H88.7033C88.8803 5.3799 89.1353 5.08096 89.4687 4.83968C89.8123 4.59842 90.2965 4.47778 90.9213 4.47778C91.4211 4.47778 91.8637 4.58268 92.2491 4.79248C92.6343 4.99178 92.9415 5.296 93.1707 5.7051C93.3997 6.1037 93.5143 6.60196 93.5143 7.19988V12.3608H91.9053V7.32576C91.9053 6.85372 91.7753 6.49182 91.5149 6.24008C91.2649 5.97782 90.9057 5.8467 90.4371 5.8467C89.9373 5.8467 89.5363 6.0093 89.2343 6.33448C88.9323 6.65966 88.7813 7.12646 88.7813 7.73486V12.3608H87.1725V7.32576C87.1725 6.85372 87.0423 6.49182 86.7819 6.24008C86.5319 5.97782 86.1727 5.8467 85.7041 5.8467C85.2043 5.8467 84.8033 6.0093 84.5013 6.33448C84.1993 6.65966 84.0483 7.12646 84.0483 7.73486V12.3608H82.4395Z" fill="#575567"/>
<path d="M99.7422 12.3608V1.34656H106.49V2.88855H101.429V6.06695H106.084V7.60895H101.429V12.3608H99.7422Z" fill="#575567"/>
<path d="M108.178 12.3608V4.60364H109.787V12.3608H108.178Z" fill="#575567"/>
<path d="M112.176 12.3608V4.60366H113.753V5.76804H114.003C114.149 5.45334 114.41 5.15962 114.784 4.88688C115.159 4.61416 115.716 4.47778 116.456 4.47778C117.039 4.47778 117.554 4.60892 118.002 4.87116C118.46 5.1334 118.82 5.50578 119.08 5.98832C119.34 6.46036 119.471 7.03204 119.471 7.7034V12.3608H117.862V7.82926C117.862 7.15792 117.695 6.6649 117.362 6.35022C117.029 6.02502 116.57 5.86244 115.987 5.86244C115.321 5.86244 114.784 6.08272 114.378 6.5233C113.983 6.96386 113.785 7.60374 113.785 8.44292V12.3608H112.176Z" fill="#575567"/>
<path d="M124.175 12.5811C123.623 12.5811 123.128 12.4866 122.691 12.2978C122.264 12.109 121.92 11.831 121.66 11.4639C121.41 11.0968 121.285 10.6509 121.285 10.1264C121.285 9.59148 121.41 9.1509 121.66 8.80474C121.92 8.44808 122.269 8.1806 122.707 8.00228C123.154 7.82394 123.659 7.73478 124.222 7.73478H126.565V7.23128C126.565 6.78022 126.429 6.41832 126.159 6.14558C125.888 5.87284 125.471 5.73648 124.909 5.73648C124.357 5.73648 123.935 5.8676 123.644 6.12984C123.352 6.3921 123.16 6.733 123.066 7.1526L121.566 6.66482C121.691 6.24524 121.889 5.8676 122.16 5.53194C122.441 5.18576 122.811 4.90778 123.269 4.698C123.727 4.4882 124.279 4.3833 124.925 4.3833C125.924 4.3833 126.711 4.6403 127.283 5.1543C127.856 5.6683 128.142 6.39734 128.142 7.34142V10.5356C128.142 10.8502 128.288 11.0076 128.58 11.0076H129.236V12.3608H128.033C127.669 12.3608 127.372 12.2664 127.143 12.0775C126.914 11.8887 126.799 11.6317 126.799 11.3065V11.2593H126.565C126.481 11.4167 126.357 11.6003 126.19 11.8101C126.023 12.0199 125.779 12.2034 125.456 12.3608C125.133 12.5076 124.706 12.5811 124.175 12.5811ZM124.409 11.2436C125.055 11.2436 125.576 11.06 125.971 10.6929C126.367 10.3153 126.565 9.80126 126.565 9.1509V8.99356H124.315C123.889 8.99356 123.545 9.08796 123.285 9.27678C123.024 9.4551 122.894 9.7226 122.894 10.0792C122.894 10.4359 123.029 10.7191 123.3 10.9289C123.571 11.1387 123.941 11.2436 124.409 11.2436Z" fill="#575567"/>
<path d="M130.801 12.3608V4.60366H132.378V5.76804H132.628C132.774 5.45334 133.035 5.15962 133.409 4.88688C133.784 4.61416 134.341 4.47778 135.081 4.47778C135.664 4.47778 136.179 4.60892 136.627 4.87116C137.085 5.1334 137.445 5.50578 137.705 5.98832C137.965 6.46036 138.096 7.03204 138.096 7.7034V12.3608H136.487V7.82926C136.487 7.15792 136.32 6.6649 135.987 6.35022C135.654 6.02502 135.195 5.86244 134.612 5.86244C133.946 5.86244 133.409 6.08272 133.003 6.5233C132.608 6.96386 132.41 7.60374 132.41 8.44292V12.3608H130.801Z" fill="#575567"/>
<path d="M143.987 12.5811C143.248 12.5811 142.576 12.4237 141.972 12.109C141.378 11.7943 140.905 11.338 140.551 10.7401C140.207 10.1422 140.035 9.42364 140.035 8.58446V8.3799C140.035 7.54072 140.207 6.82742 140.551 6.24C140.905 5.64208 141.378 5.18576 141.972 4.87108C142.576 4.5459 143.248 4.3833 143.987 4.3833C144.726 4.3833 145.356 4.51966 145.877 4.7924C146.398 5.06514 146.814 5.42704 147.127 5.8781C147.45 6.32916 147.658 6.82742 147.752 7.37288L146.19 7.70332C146.137 7.35714 146.028 7.04246 145.862 6.75924C145.695 6.476 145.461 6.25048 145.159 6.08264C144.857 5.9148 144.477 5.83088 144.018 5.83088C143.571 5.83088 143.164 5.93578 142.8 6.14558C142.446 6.34488 142.165 6.6386 141.956 7.02672C141.748 7.40436 141.644 7.8659 141.644 8.41138V8.55298C141.644 9.09846 141.748 9.56524 141.956 9.95336C142.165 10.3415 142.446 10.6352 142.8 10.8345C143.164 11.0338 143.571 11.1335 144.018 11.1335C144.695 11.1335 145.211 10.9604 145.565 10.6142C145.919 10.2576 146.143 9.80652 146.236 9.26104L147.798 9.62294C147.673 10.1579 147.45 10.6509 147.127 11.102C146.814 11.5531 146.398 11.915 145.877 12.1877C145.356 12.4499 144.726 12.5811 143.987 12.5811Z" fill="#575567"/>
<path d="M153.184 12.5811C152.403 12.5811 151.721 12.4185 151.138 12.0933C150.555 11.7576 150.097 11.2908 149.763 10.6929C149.441 10.0845 149.279 9.38168 149.279 8.58446V8.39564C149.279 7.58792 149.441 6.88512 149.763 6.2872C150.086 5.67878 150.534 5.212 151.107 4.8868C151.69 4.55114 152.362 4.3833 153.122 4.3833C153.861 4.3833 154.507 4.55114 155.059 4.8868C155.621 5.212 156.058 5.6683 156.371 6.25572C156.683 6.84316 156.839 7.53024 156.839 8.31696V8.93062H150.919C150.94 9.61246 151.164 10.1579 151.591 10.567C152.028 10.9656 152.57 11.1649 153.216 11.1649C153.82 11.1649 154.272 11.0286 154.574 10.7558C154.887 10.4831 155.126 10.1684 155.293 9.81176L156.621 10.5041C156.475 10.7978 156.261 11.1072 155.98 11.4324C155.71 11.7576 155.35 12.0303 154.903 12.2506C154.455 12.4709 153.882 12.5811 153.184 12.5811ZM150.935 7.68758H155.199C155.158 7.10016 154.949 6.64384 154.574 6.31866C154.2 5.983 153.71 5.81516 153.106 5.81516C152.502 5.81516 152.008 5.983 151.622 6.31866C151.247 6.64384 151.018 7.10016 150.935 7.68758Z" fill="#575567"/>
<path d="M108.076 1.66443H109.909V3.5104H108.076V1.66443Z" fill="#575567"/>
<path d="M1.31473 14.1435L0.0410166 13.137L0.0410156 1.03156L1.31473 0.0251465V14.1435Z" fill="#575567"/>
<path d="M7.25079 14.1673L4.28125 13.1563V1.01094L7.25079 0V14.1673Z" fill="#575567"/>
<path d="M14.1047 14.1673L8.52734 13.2005V1.01094L14.1047 0V14.1673Z" fill="#575567"/>
</g>
<defs>
<clipPath id="clip0_349_12763">
<rect width="157" height="16" fill="white"/>
</clipPath>
</defs>
</svg>
