<svg width="76" height="28" viewBox="0 0 76 28" fill="none" xmlns="http://www.w3.org/2000/svg">
<path d="M44.0773 21.3037C44.0681 21.2896 44.0539 21.2793 44.0373 21.2748C44.0208 21.2702 44.003 21.2717 43.9873 21.279C42.511 21.9901 40.9334 22.1378 39.2546 21.7223C36.551 21.053 35.4102 18.888 35.4067 16.2762C35.4008 12.8526 35.399 9.47268 35.4014 6.13628C35.4032 5.17739 35.4456 4.16552 35.7793 3.28256C36.468 1.46837 37.8231 0.40647 39.8444 0.0968461C43.4893 -0.462949 46.6238 1.42128 46.6344 5.30277C46.6438 8.66625 46.6462 12.38 46.6415 16.4439C46.6415 17.4523 46.4649 18.2787 46.0764 19.1281C46.0662 19.1502 46.0632 19.1751 46.068 19.1992C46.0727 19.2232 46.0849 19.2453 46.1029 19.2623C46.5667 19.6968 47.0747 19.9487 47.6268 20.0181C47.6563 20.022 47.6832 20.0362 47.7028 20.058C47.7223 20.0797 47.7329 20.1077 47.7328 20.1365L47.7257 23.105C47.7257 23.1791 47.6886 23.2174 47.6145 23.2198C46.157 23.2668 44.978 22.6282 44.0773 21.3037ZM41.4179 14.0617C41.9512 14.3619 42.418 14.7192 42.8182 15.1336C42.9266 15.2455 42.9807 15.2237 42.9807 15.0683C42.9725 11.9426 42.9707 8.76514 42.9754 5.53587C42.9772 4.52576 42.8024 3.48741 41.6245 3.26667C40.3442 3.0265 39.1398 3.49977 39.124 4.96548C39.091 8.25008 39.0822 12.018 39.0975 16.2691C39.0998 17.0367 39.1734 17.5629 39.3182 17.8478C39.8286 18.8562 41.1777 18.9056 42.1031 18.5295C42.2337 18.4765 42.2638 18.3894 42.1931 18.2681C41.9789 17.8985 41.711 17.5829 41.3896 17.3216C41.3331 17.2757 41.3049 17.2162 41.3049 17.1432V14.1271C41.305 14.1139 41.3086 14.101 41.3152 14.0896C41.3219 14.0783 41.3314 14.0688 41.3428 14.0622C41.3542 14.0556 41.3671 14.0521 41.3803 14.052C41.3934 14.0519 41.4064 14.0553 41.4179 14.0617Z" fill="#575567"/>
<path d="M9.60812 7.63024C9.5728 7.64908 9.55161 7.67733 9.54454 7.71501C8.7593 12.1934 7.94933 16.7901 7.11464 21.505C7.10837 21.5422 7.08913 21.5758 7.06035 21.6001C7.03157 21.6243 6.99511 21.6376 6.95748 21.6375L4.11965 21.634C4.05137 21.634 4.01134 21.601 3.99957 21.5351L0.00506328 0.465923C-0.0161277 0.356436 0.0291982 0.301693 0.14104 0.301693H3.30379C3.33333 0.302169 3.36175 0.313059 3.38405 0.332444C3.40634 0.351828 3.42107 0.378462 3.42564 0.407648C4.112 4.60111 4.79305 8.70863 5.46881 12.7302C5.52414 13.0563 5.5624 13.3777 5.58359 13.6944C5.58477 13.7144 5.59242 13.7309 5.60655 13.7438C5.61715 13.7544 5.62951 13.7627 5.64363 13.7686C5.65281 13.7724 5.66273 13.774 5.67267 13.7734C5.68261 13.7728 5.69232 13.7699 5.7011 13.765C5.70989 13.7601 5.71752 13.7533 5.72347 13.7451C5.72941 13.7368 5.7335 13.7274 5.73546 13.7174L8.06824 0.4412C8.07452 0.403199 8.09394 0.368665 8.12306 0.343759C8.15217 0.318853 8.18906 0.305196 8.22717 0.305225L11.0615 0.301693C11.0991 0.301693 11.1209 0.31994 11.1268 0.356436L13.5302 13.5584C13.5903 13.8892 13.645 13.8881 13.6944 13.5549L15.674 0.391754C15.6778 0.36726 15.6902 0.344915 15.709 0.328732C15.7277 0.31255 15.7517 0.303589 15.7765 0.303459L18.9657 0.299927C19.0681 0.299927 19.1105 0.35055 19.0928 0.451796L15.3809 21.5774C15.378 21.5941 15.3694 21.6093 15.3564 21.6203C15.3435 21.6312 15.3272 21.6373 15.3103 21.6375L12.3841 21.634C12.3217 21.634 12.2847 21.6034 12.2729 21.5421L9.65403 7.6532C9.6532 7.64827 9.65121 7.6436 9.64824 7.63958C9.64526 7.63556 9.64138 7.6323 9.6369 7.63006C9.63243 7.62783 9.62749 7.62668 9.62249 7.62671C9.61748 7.62674 9.61256 7.62795 9.60812 7.63024Z" fill="#575567"/>
<path d="M25.7555 3.56694V8.93356C25.7555 8.95136 25.7626 8.96843 25.7752 8.98101C25.7878 8.9936 25.8048 9.00067 25.8226 9.00067L30.4069 8.9989C30.4247 8.9989 30.4418 9.00597 30.4544 9.01856C30.467 9.03114 30.474 9.04821 30.474 9.06601L30.4705 12.1228C30.4705 12.1406 30.4634 12.1577 30.4509 12.1703C30.4383 12.1828 30.4212 12.1899 30.4034 12.1899H25.8226C25.8048 12.1899 25.7878 12.197 25.7752 12.2096C25.7626 12.2222 25.7555 12.2392 25.7555 12.257L25.7537 18.3724C25.7537 18.3812 25.7555 18.3899 25.7589 18.3981C25.7622 18.4062 25.7672 18.4136 25.7734 18.4198C25.7796 18.4261 25.787 18.431 25.7952 18.4344C25.8033 18.4378 25.812 18.4395 25.8209 18.4395H32.2329C32.2507 18.4395 32.2678 18.4466 32.2803 18.4591C32.2929 18.4717 32.3 18.4888 32.3 18.5066L32.2982 21.5669C32.2982 21.5847 32.2912 21.6018 32.2786 21.6144C32.266 21.627 32.2489 21.634 32.2311 21.634L22.1566 21.6358C22.1388 21.6358 22.1217 21.6287 22.1091 21.6161C22.0965 21.6036 22.0895 21.5865 22.0895 21.5687L22.0859 0.375934C22.0859 0.367122 22.0877 0.358396 22.091 0.350254C22.0944 0.342113 22.0994 0.334715 22.1056 0.328484C22.1118 0.322253 22.1192 0.31731 22.1274 0.313938C22.1355 0.310565 22.1442 0.308829 22.153 0.308829L31.825 0.305298C31.8428 0.305298 31.8598 0.312368 31.8724 0.324952C31.885 0.337537 31.8921 0.354605 31.8921 0.372403L31.8938 3.43627C31.8938 3.45406 31.8868 3.47113 31.8742 3.48372C31.8616 3.4963 31.8445 3.50337 31.8267 3.50337L25.8226 3.49984C25.8138 3.49984 25.8051 3.50158 25.7969 3.50495C25.7888 3.50832 25.7814 3.51326 25.7752 3.51949C25.7689 3.52573 25.764 3.53312 25.7606 3.54127C25.7572 3.54941 25.7555 3.55813 25.7555 3.56694Z" fill="#575567"/>
<path d="M54.1643 8.4637C54.1054 8.36952 54.076 8.37776 54.076 8.48842L54.0866 21.5686C54.0866 21.5864 54.0795 21.6034 54.0669 21.616C54.0543 21.6286 54.0373 21.6357 54.0195 21.6357H50.8638C50.8357 21.6357 50.8087 21.6245 50.7888 21.6046C50.769 21.5848 50.7578 21.5578 50.7578 21.5297L50.7596 0.40406C50.7596 0.377832 50.77 0.352679 50.7885 0.334133C50.8071 0.315587 50.8322 0.305169 50.8585 0.305169L54.0654 0.301637C54.0969 0.301515 54.1277 0.311111 54.1537 0.32912C54.1796 0.347128 54.1993 0.372677 54.2102 0.402294L58.5155 12.1827C58.6226 12.4747 58.6762 12.4653 58.6762 12.1545V0.405826C58.6762 0.336367 58.7115 0.301637 58.7821 0.301637L61.8319 0.310466C61.9508 0.311644 62.0102 0.371685 62.0102 0.49059L62.012 21.5474C62.012 21.6062 61.982 21.6357 61.9219 21.6357H58.8828C58.8275 21.6357 58.7904 21.6092 58.7715 21.5562C57.2976 17.3239 55.7936 13.0268 54.2596 8.66502C54.2349 8.59438 54.2031 8.52727 54.1643 8.4637Z" fill="#575567"/>
<path d="M64.8711 3.41143L64.8782 0.402309C64.8782 0.377955 64.8878 0.354599 64.9051 0.337378C64.9223 0.320157 64.9456 0.310482 64.97 0.310482L75.5496 0.308716C75.5739 0.308716 75.5973 0.318391 75.6145 0.335612C75.6317 0.352833 75.6414 0.376189 75.6414 0.400544L75.6344 3.4132C75.6344 3.42526 75.632 3.4372 75.6274 3.44834C75.6228 3.45948 75.616 3.4696 75.6075 3.47813C75.5989 3.48665 75.5888 3.49342 75.5777 3.49803C75.5665 3.50265 75.5546 3.50502 75.5425 3.50502L72.1838 3.49266C72.1717 3.49266 72.1598 3.49504 72.1486 3.49965C72.1375 3.50427 72.1274 3.51103 72.1188 3.51956C72.1103 3.52809 72.1035 3.53821 72.0989 3.54935C72.0943 3.56049 72.0919 3.57243 72.0919 3.58449L72.099 21.5439C72.099 21.5682 72.0893 21.5916 72.0721 21.6088C72.0549 21.626 72.0315 21.6357 72.0072 21.6357H68.5106C68.4863 21.6357 68.4629 21.626 68.4457 21.6088C68.4285 21.5916 68.4188 21.5682 68.4188 21.5439L68.4135 3.58802C68.4135 3.56367 68.4039 3.54031 68.3866 3.52309C68.3694 3.50587 68.346 3.49619 68.3217 3.49619L64.9629 3.50326C64.9509 3.50326 64.9389 3.50088 64.9278 3.49627C64.9166 3.49165 64.9065 3.48489 64.898 3.47636C64.8895 3.46784 64.8827 3.45771 64.8781 3.44657C64.8735 3.43543 64.8711 3.42349 64.8711 3.41143Z" fill="#575567"/>
<path d="M4.83015 25.4024C4.77482 25.2823 4.67887 25.2358 4.5423 25.2628C4.48092 25.2755 4.42578 25.3089 4.3862 25.3575C4.34662 25.4061 4.32504 25.4668 4.3251 25.5295L4.3198 27.2601C4.31932 27.3265 4.34252 27.3909 4.38524 27.4417C4.42797 27.4925 4.48742 27.5264 4.5529 27.5373C4.75068 27.5703 4.85899 27.4855 4.87783 27.2831C4.88489 27.1971 4.88431 27.1112 4.87606 27.0252C4.86782 26.9334 4.90785 26.8757 4.99615 26.8522C5.09504 26.8251 5.19393 26.8221 5.29282 26.8433C5.35639 26.8563 5.39289 26.8946 5.40231 26.9581C5.46941 27.4014 5.33697 27.9047 4.82485 27.9824C4.48815 28.033 4.22267 27.9747 4.02842 27.8075C3.76707 27.5833 3.80415 27.253 3.79709 26.9246C3.78885 26.4313 3.79297 25.9357 3.80945 25.4377C3.83594 24.6536 5.16038 24.5388 5.36346 25.3141C5.39877 25.4518 5.4235 25.5889 5.43763 25.7255C5.44704 25.8173 5.40584 25.8644 5.31401 25.8668L4.97672 25.8791C4.8896 25.8827 4.8537 25.8415 4.869 25.7555C4.89255 25.6296 4.8796 25.5118 4.83015 25.4024Z" fill="#575567"/>
<path d="M31.2821 27.2813C31.2821 27.4709 31.2067 27.6528 31.0726 27.787C30.9385 27.9211 30.7566 27.9964 30.5669 27.9964H30.3656C30.1759 27.9964 29.994 27.9211 29.8599 27.787C29.7257 27.6528 29.6504 27.4709 29.6504 27.2813V25.5012C29.6504 25.3115 29.7257 25.1296 29.8599 24.9955C29.994 24.8614 30.1759 24.786 30.3656 24.786H30.5669C30.7566 24.786 30.9385 24.8614 31.0726 24.9955C31.2067 25.1296 31.2821 25.3115 31.2821 25.5012V27.2813ZM30.7517 25.5203C30.7519 25.4863 30.7453 25.4525 30.7324 25.4209C30.7196 25.3893 30.7006 25.3606 30.6766 25.3364C30.6526 25.3122 30.6241 25.2929 30.5927 25.2797C30.5613 25.2665 30.5275 25.2596 30.4934 25.2594L30.4511 25.2592C30.3822 25.2588 30.316 25.2858 30.2671 25.3343C30.2182 25.3827 30.1905 25.4486 30.1901 25.5174L30.1808 27.2904C30.1806 27.3245 30.1872 27.3582 30.2001 27.3898C30.2129 27.4214 30.2319 27.4501 30.2559 27.4743C30.2799 27.4986 30.3084 27.5178 30.3398 27.531C30.3712 27.5442 30.405 27.5511 30.439 27.5513L30.4814 27.5515C30.5503 27.5519 30.6164 27.5249 30.6654 27.4765C30.7143 27.428 30.742 27.3622 30.7424 27.2933L30.7517 25.5203Z" fill="#575567"/>
<path d="M37.7021 25.5279C37.6902 25.5835 37.6927 25.6413 37.7094 25.6957C37.7261 25.7501 37.7564 25.7993 37.7975 25.8387C38.0306 26.0624 38.2596 26.2796 38.4844 26.4903C38.9559 26.9335 38.933 27.8748 38.1419 27.9825C37.605 28.0555 37.2783 27.8289 37.1618 27.3026C37.1347 27.1861 37.1812 27.1243 37.3013 27.1172L37.5414 27.1031C37.638 27.0972 37.691 27.1419 37.7004 27.2373C37.7239 27.4574 37.8358 27.5628 38.0359 27.5534C38.0709 27.5517 38.1051 27.5417 38.1355 27.5242C38.1659 27.5067 38.1917 27.4822 38.2107 27.4527C38.5074 26.9953 37.7622 26.538 37.4761 26.2484C36.941 25.708 37.1635 24.7844 38.0253 24.7809C38.4103 24.7797 38.6581 24.9922 38.7688 25.4184C38.7719 25.4315 38.7725 25.4452 38.7703 25.4585C38.7682 25.4718 38.7635 25.4845 38.7564 25.4959C38.7493 25.5073 38.74 25.517 38.7291 25.5247C38.7182 25.5323 38.7058 25.5376 38.6928 25.5402L38.4209 25.5985C38.3373 25.6162 38.2772 25.5867 38.2407 25.5102L38.1648 25.3513C38.1538 25.3292 38.1379 25.31 38.1183 25.295C38.0987 25.28 38.076 25.2696 38.0518 25.2647C37.8634 25.2306 37.7469 25.3183 37.7021 25.5279Z" fill="#575567"/>
<path d="M63.9449 27.271C63.9451 27.3657 63.9266 27.4594 63.8906 27.5469C63.8545 27.6343 63.8016 27.7138 63.7348 27.7809C63.668 27.8479 63.5887 27.9011 63.5013 27.9375C63.414 27.9738 63.3203 27.9926 63.2257 27.9928L63.0315 27.9931C62.8404 27.9935 62.657 27.9179 62.5216 27.783C62.3863 27.6481 62.3101 27.465 62.3097 27.2739L62.3066 25.5115C62.3065 25.4169 62.3249 25.3232 62.361 25.2357C62.3971 25.1482 62.45 25.0687 62.5168 25.0017C62.5836 24.9347 62.6629 24.8814 62.7503 24.8451C62.8376 24.8087 62.9313 24.7899 63.0259 24.7898L63.2201 24.7894C63.4112 24.7891 63.5946 24.8647 63.73 24.9996C63.8653 25.1344 63.9415 25.3176 63.9419 25.5087L63.9449 27.271ZM63.4222 25.5247C63.4223 25.4897 63.4155 25.455 63.4021 25.4226C63.3888 25.3903 63.3692 25.3608 63.3445 25.336C63.3197 25.3112 63.2904 25.2915 63.2581 25.2781C63.2257 25.2646 63.1911 25.2577 63.156 25.2576L63.1031 25.2575C63.068 25.2574 63.0334 25.2643 63.001 25.2776C62.9686 25.291 62.9392 25.3106 62.9144 25.3353C62.8896 25.36 62.8699 25.3894 62.8564 25.4217C62.843 25.454 62.836 25.4887 62.836 25.5237L62.8329 27.2825C62.8328 27.3176 62.8397 27.3523 62.853 27.3846C62.8663 27.417 62.8859 27.4464 62.9107 27.4712C62.9354 27.496 62.9647 27.5157 62.9971 27.5292C63.0294 27.5426 63.0641 27.5496 63.0991 27.5497L63.1521 27.5498C63.1871 27.5498 63.2218 27.543 63.2541 27.5296C63.2865 27.5163 63.3159 27.4967 63.3407 27.472C63.3655 27.4473 63.3852 27.4179 63.3987 27.3856C63.4121 27.3533 63.4191 27.3186 63.4192 27.2836L63.4222 25.5247Z" fill="#575567"/>
<path d="M68.2614 27.2852C68.2608 27.3784 68.2418 27.4706 68.2055 27.5565C68.1692 27.6424 68.1164 27.7203 68.05 27.7857C67.9836 27.8512 67.905 27.9029 67.8186 27.938C67.7322 27.9731 67.6398 27.9908 67.5466 27.9902L67.3241 27.9886C67.2309 27.988 67.1387 27.969 67.0528 27.9327C66.9669 27.8964 66.889 27.8436 66.8236 27.7772C66.7581 27.7108 66.7064 27.6322 66.6713 27.5458C66.6362 27.4594 66.6185 27.367 66.6192 27.2738L66.6316 25.4938C66.6322 25.4005 66.6512 25.3084 66.6875 25.2225C66.7238 25.1366 66.7766 25.0587 66.843 24.9933C66.9094 24.9278 66.988 24.876 67.0744 24.841C67.1608 24.8059 67.2532 24.7882 67.3464 24.7888L67.5689 24.7904C67.6621 24.791 67.7543 24.81 67.8402 24.8463C67.9261 24.8826 68.004 24.9354 68.0694 25.0018C68.1349 25.0682 68.1866 25.1468 68.2217 25.2332C68.2568 25.3196 68.2745 25.412 68.2739 25.5052L68.2614 27.2852ZM67.7292 25.4972C67.7291 25.4349 67.7043 25.3752 67.6601 25.3313C67.616 25.2873 67.5562 25.2627 67.494 25.2628L67.4021 25.2629C67.3713 25.263 67.3408 25.2691 67.3123 25.281C67.2838 25.2928 67.2579 25.3102 67.2362 25.332C67.2144 25.3539 67.1971 25.3798 67.1854 25.4083C67.1736 25.4368 67.1676 25.4674 67.1677 25.4982L67.1709 27.31C67.171 27.3723 67.1958 27.432 67.2399 27.476C67.2841 27.5199 67.3438 27.5446 67.4061 27.5445L67.498 27.5443C67.5288 27.5443 67.5593 27.5381 67.5878 27.5263C67.6163 27.5144 67.6421 27.4971 67.6639 27.4752C67.6857 27.4534 67.7029 27.4275 67.7147 27.399C67.7264 27.3704 67.7325 27.3399 67.7324 27.309L67.7292 25.4972Z" fill="#575567"/>
<path d="M8.53894 27.4067L8.48949 27.7952C8.48403 27.8414 8.4623 27.8841 8.42827 27.9155C8.39424 27.947 8.35017 27.965 8.30407 27.9665L8.10806 27.9735C8.00446 27.9771 7.96207 27.9276 7.98091 27.8252L8.50362 24.9821C8.51142 24.9384 8.53421 24.8988 8.56805 24.8701C8.60189 24.8414 8.64468 24.8254 8.68904 24.8249L9.04576 24.8196C9.08665 24.819 9.12646 24.833 9.15814 24.8592C9.18981 24.8854 9.21131 24.922 9.21882 24.9626L9.74683 27.8234C9.76919 27.9423 9.71975 27.9959 9.59849 27.9841L9.38834 27.9629C9.34245 27.958 9.29976 27.9371 9.26778 27.9038C9.2358 27.8706 9.21658 27.8271 9.21352 27.781L9.19233 27.4332C9.18644 27.3449 9.13994 27.2925 9.05282 27.276C8.9245 27.2513 8.79559 27.2501 8.66609 27.2725C8.59074 27.2866 8.54836 27.3313 8.53894 27.4067ZM8.73142 26.8133L8.96452 26.8204C8.9714 26.8206 8.97825 26.8195 8.98467 26.817C8.99108 26.8145 8.99694 26.8108 9.00188 26.806C9.00683 26.8012 9.01076 26.7955 9.01344 26.7892C9.01613 26.7829 9.01751 26.776 9.0175 26.7692V26.7444C9.02509 26.4542 9.01543 26.1753 8.99062 25.9685C8.96581 25.7618 8.92787 25.644 8.88506 25.6407H8.87446C8.85307 25.639 8.83109 25.666 8.80981 25.7202C8.78853 25.7744 8.76836 25.8547 8.75047 25.9565C8.73258 26.0583 8.71732 26.1795 8.70556 26.3132C8.6938 26.447 8.68579 26.5905 8.68198 26.7356V26.7603C8.68174 26.7671 8.68284 26.7738 8.68519 26.7801C8.68755 26.7864 8.69113 26.7922 8.69572 26.7971C8.70031 26.802 8.70583 26.806 8.71196 26.8088C8.71808 26.8115 8.7247 26.8131 8.73142 26.8133Z" fill="#575567"/>
<path d="M12.9115 26.983C12.8938 27.2609 12.8932 27.5469 12.9097 27.8413C12.9132 27.9013 12.8856 27.9378 12.8267 27.9508C12.709 27.9778 12.5912 27.9843 12.4735 27.9702C12.4052 27.9619 12.3711 27.9237 12.3711 27.8554L12.3729 24.9134C12.3729 24.8498 12.4052 24.8174 12.47 24.8163C13.0368 24.8057 13.8474 24.7121 13.9957 25.459C14.0805 25.8876 13.991 26.2408 13.7273 26.5186C13.6802 26.568 13.6673 26.6251 13.6885 26.6899L14.0452 27.7795C14.0864 27.9066 14.0405 27.9719 13.9074 27.9755L13.7662 27.9808C13.6913 27.9829 13.6184 27.9574 13.5611 27.9092C13.5038 27.861 13.4662 27.7935 13.4554 27.7194C13.4153 27.4416 13.3412 27.1773 13.2329 26.9265C13.048 26.4968 12.9409 26.5157 12.9115 26.983ZM12.9044 25.3443L12.8903 26.1531C12.89 26.164 12.892 26.1748 12.8959 26.185C12.8999 26.1951 12.9058 26.2044 12.9133 26.2123C12.9209 26.2201 12.9299 26.2264 12.9399 26.2308C12.9499 26.2352 12.9606 26.2376 12.9715 26.2378L13.1198 26.2396C13.2149 26.2414 13.3067 26.2027 13.3753 26.1322C13.4438 26.0617 13.4834 25.965 13.4854 25.8634L13.4889 25.6551C13.4899 25.6047 13.4816 25.5547 13.4645 25.5078C13.4473 25.4609 13.4217 25.4181 13.3891 25.3819C13.3564 25.3456 13.3174 25.3166 13.2742 25.2965C13.2311 25.2764 13.1846 25.2657 13.1375 25.2648L12.9892 25.263C12.9783 25.2628 12.9674 25.2647 12.9573 25.2687C12.9471 25.2726 12.9378 25.2785 12.93 25.2861C12.9221 25.2936 12.9158 25.3026 12.9114 25.3126C12.907 25.3226 12.9046 25.3334 12.9044 25.3443Z" fill="#575567"/>
<path d="M16.7634 24.9185C16.7634 24.8937 16.7732 24.8699 16.7908 24.8524C16.8083 24.8348 16.8322 24.825 16.857 24.825L17.6287 24.8302C17.7293 24.8309 17.8289 24.8522 17.9216 24.893C18.0144 24.9337 18.0985 24.9931 18.1691 25.0677C18.2398 25.1423 18.2957 25.2307 18.3335 25.3278C18.3714 25.4249 18.3905 25.5289 18.3898 25.6337L18.3792 27.1701C18.3777 27.3817 18.2956 27.5842 18.1509 27.7329C18.0062 27.8816 17.8107 27.9643 17.6075 27.963L16.8358 27.9577C16.811 27.9577 16.7872 27.9478 16.7696 27.9303C16.752 27.9127 16.7422 27.8889 16.7422 27.8641L16.7634 24.9185ZM17.2684 27.3484C17.2684 27.3822 17.2767 27.4155 17.2927 27.4453C17.3087 27.4751 17.3317 27.5005 17.3599 27.5192C17.388 27.5379 17.4204 27.5494 17.454 27.5525C17.4877 27.5557 17.5216 27.5505 17.5527 27.5374L17.7346 27.4615C17.7718 27.4458 17.8035 27.4195 17.8259 27.3859C17.8482 27.3523 17.86 27.3129 17.86 27.2725V25.5349C17.86 25.4979 17.8499 25.4617 17.831 25.4299C17.812 25.3982 17.7848 25.3722 17.7523 25.3547L17.5863 25.2647C17.5551 25.2479 17.5201 25.2394 17.4847 25.2402C17.4493 25.241 17.4147 25.2509 17.3842 25.2691C17.3538 25.2872 17.3286 25.313 17.3111 25.3438C17.2936 25.3746 17.2844 25.4094 17.2843 25.4448L17.2684 27.3484Z" fill="#575567"/>
<path d="M22.0485 27.2902L21.5876 27.269C21.5612 27.2675 21.5353 27.2765 21.5154 27.294C21.4956 27.3115 21.4835 27.3362 21.4817 27.3626L21.4499 27.8623C21.4482 27.8869 21.4375 27.91 21.42 27.9272C21.4024 27.9445 21.3791 27.9547 21.3545 27.9559L21.0278 27.9683C21.0128 27.9688 20.9979 27.9659 20.9842 27.9599C20.9704 27.9539 20.9582 27.9449 20.9484 27.9335C20.9386 27.9222 20.9314 27.9088 20.9274 27.8944C20.9235 27.8799 20.9228 27.8647 20.9254 27.85L21.4569 24.8973C21.4611 24.8738 21.4736 24.8525 21.492 24.8373C21.5104 24.8221 21.5337 24.814 21.5576 24.8143L22.0732 24.8214C22.0963 24.8218 22.1185 24.8301 22.1362 24.8448C22.1539 24.8596 22.1659 24.88 22.1704 24.9026L22.7001 27.8464C22.7028 27.8612 22.7021 27.8764 22.6981 27.8908C22.6941 27.9053 22.687 27.9187 22.6772 27.93C22.6673 27.9414 22.6551 27.9504 22.6414 27.9564C22.6276 27.9624 22.6127 27.9652 22.5977 27.9647L22.2445 27.9559C22.2185 27.955 22.1938 27.944 22.1756 27.9252C22.1575 27.9064 22.1474 27.8813 22.1474 27.8553L22.1439 27.389C22.1435 27.3636 22.1334 27.3392 22.1157 27.3208C22.098 27.3025 22.074 27.2915 22.0485 27.2902ZM21.6918 26.8151L21.9214 26.8187C21.935 26.8187 21.948 26.8133 21.9576 26.8037C21.9672 26.7941 21.9726 26.781 21.9726 26.7674L21.9744 26.7374C21.9761 26.5984 21.9738 26.4608 21.9678 26.3323C21.9618 26.2038 21.9521 26.0871 21.9393 25.9888C21.9265 25.8906 21.9109 25.8127 21.8933 25.7596C21.8756 25.7065 21.8564 25.6794 21.8366 25.6796H21.8048C21.7651 25.6801 21.7257 25.7914 21.6952 25.989C21.6648 26.1866 21.6458 26.4545 21.6424 26.7339L21.6406 26.7639C21.6406 26.7775 21.646 26.7905 21.6556 26.8001C21.6652 26.8097 21.6782 26.8151 21.6918 26.8151Z" fill="#575567"/>
<path d="M26.4738 26.3931L26.4685 24.9503C26.4673 24.862 26.5115 24.8173 26.601 24.8161H26.8235C26.9118 24.8161 26.9559 24.8603 26.9559 24.9486V27.8588C26.9559 27.9247 26.9229 27.9618 26.857 27.97C26.7463 27.9842 26.6392 27.9771 26.5356 27.9489C26.4826 27.9336 26.4479 27.9 26.4314 27.8482C26.276 27.3585 26.1124 26.8817 25.9405 26.4178C25.8322 26.1247 25.7804 26.1347 25.7851 26.4478L25.8081 27.8199C25.8092 27.9106 25.7645 27.9583 25.6738 27.963L25.4478 27.9753C25.3536 27.9812 25.3059 27.9365 25.3048 27.8411L25.2871 24.9556C25.2871 24.8709 25.3295 24.8244 25.4143 24.8161C25.5273 24.8043 25.6344 24.8108 25.7357 24.8355C25.768 24.8436 25.7978 24.8598 25.8222 24.8827C25.8466 24.9055 25.8648 24.9343 25.8752 24.9662C26.04 25.4654 26.2124 25.9463 26.3926 26.409C26.4467 26.5491 26.4738 26.5438 26.4738 26.3931Z" fill="#575567"/>
<path d="M42.3622 25.4023V27.8587C42.3622 27.9447 42.3192 27.9865 42.2333 27.9841L41.9525 27.9753C41.8724 27.9717 41.8324 27.9299 41.8324 27.8499V25.4253C41.8324 25.3558 41.7983 25.3158 41.73 25.3052C41.6464 25.2923 41.5622 25.294 41.4774 25.3105C41.3632 25.3317 41.3056 25.2846 41.3044 25.1692L41.3008 24.9962C41.2985 24.8784 41.3568 24.8196 41.4757 24.8196L42.7666 24.8249C42.8008 24.8249 42.8335 24.8386 42.8577 24.8632C42.8819 24.8877 42.8955 24.9209 42.8955 24.9556L42.8919 25.1975C42.8919 25.274 42.8531 25.3105 42.7754 25.307L42.4822 25.2893C42.4668 25.2883 42.4514 25.2906 42.4368 25.2958C42.4223 25.301 42.409 25.3092 42.3977 25.3198C42.3865 25.3304 42.3775 25.3432 42.3714 25.3574C42.3653 25.3716 42.3621 25.3869 42.3622 25.4023Z" fill="#575567"/>
<path d="M45.998 27.2549C45.9306 27.2501 45.8637 27.2708 45.8104 27.3129C45.7572 27.355 45.7215 27.4156 45.7102 27.4827L45.666 27.7459C45.6401 27.9001 45.5489 27.9807 45.3923 27.9878L45.2864 27.9913C45.1722 27.996 45.1251 27.9419 45.1451 27.8289L45.666 24.9487C45.6778 24.8804 45.7178 24.8409 45.7861 24.8303C45.9439 24.8068 46.0958 24.8074 46.2417 24.8321C46.3253 24.8462 46.3748 24.8951 46.3901 24.9787L46.9057 27.8359C46.9187 27.9042 46.891 27.9466 46.8227 27.9631C46.672 28.0007 46.5408 27.9807 46.4289 27.903C46.3929 27.8785 46.3655 27.8431 46.3506 27.8019C46.3357 27.7607 46.3341 27.7158 46.3459 27.6735C46.4177 27.4168 46.3018 27.2773 45.998 27.2549ZM45.9892 25.7045L45.8267 26.674C45.8114 26.7646 45.8497 26.8099 45.9415 26.8099H46.0846C46.1031 26.8103 46.1216 26.8067 46.1386 26.7994C46.1557 26.792 46.171 26.7812 46.1835 26.7675C46.1961 26.7538 46.2055 26.7376 46.2113 26.7199C46.2171 26.7023 46.219 26.6836 46.217 26.6651C46.1805 26.2966 46.1375 25.9764 46.0881 25.7045C46.054 25.5208 46.021 25.5208 45.9892 25.7045Z" fill="#575567"/>
<path d="M50.0429 25.6938C50.0405 25.9422 50.0906 25.9534 50.193 25.7274L50.5373 24.9698C50.5588 24.9226 50.5938 24.8827 50.638 24.8551C50.6823 24.8274 50.7339 24.8133 50.7863 24.8144L50.9682 24.8179C51.106 24.8203 51.1436 24.8833 51.0812 25.0069L50.6203 25.911C50.5921 25.9652 50.588 26.0217 50.608 26.0806L51.1996 27.8588C51.2034 27.8698 51.2047 27.8815 51.2032 27.8931C51.2017 27.9046 51.1976 27.9156 51.191 27.9252C51.1845 27.9349 51.1758 27.9428 51.1656 27.9485C51.1554 27.9541 51.1441 27.9573 51.1325 27.9577L50.8605 27.9701C50.7334 27.976 50.6527 27.9177 50.6186 27.7953L50.3166 26.711C50.3092 26.6821 50.2906 26.6574 50.2649 26.6419C50.2392 26.6264 50.2084 26.6214 50.1789 26.628C50.1188 26.6421 50.0853 26.6815 50.0782 26.7463C50.0382 27.1042 50.0305 27.475 50.0552 27.8588C50.0562 27.8736 50.0541 27.8885 50.049 27.9024C50.0439 27.9163 50.036 27.929 50.0256 27.9397C50.0153 27.9503 50.0029 27.9587 49.9891 27.9642C49.9754 27.9698 49.9606 27.9724 49.9458 27.9718L49.6261 27.9613C49.5484 27.9589 49.5096 27.9195 49.5096 27.8429L49.5078 24.9062C49.5078 24.845 49.5384 24.815 49.5996 24.8162L49.9175 24.8215C50.0058 24.8226 50.0494 24.8674 50.0482 24.9557L50.0429 25.6938Z" fill="#575567"/>
<path d="M54.4083 26.582C54.3459 26.582 54.3142 26.6138 54.313 26.6774L54.3024 27.3343C54.3021 27.3552 54.3061 27.3759 54.3139 27.3953C54.3218 27.4146 54.3334 27.4323 54.3482 27.4472C54.363 27.4621 54.3805 27.474 54.4 27.4822C54.4194 27.4904 54.4402 27.4948 54.4613 27.495L55.0882 27.5021C55.2283 27.5044 55.3072 27.5751 55.3248 27.714C55.3284 27.7375 55.3266 27.7611 55.3195 27.7846C55.2901 27.8976 55.2171 27.9541 55.1006 27.9541L53.8821 27.9559C53.8173 27.9559 53.785 27.9235 53.785 27.8588L53.7832 24.9344C53.7832 24.8567 53.822 24.8179 53.8997 24.8179L55.0405 24.8249C55.1865 24.8261 55.2536 24.8991 55.2418 25.0439L55.233 25.1516C55.2295 25.1922 55.2112 25.2299 55.1818 25.2574C55.1523 25.2849 55.1139 25.3001 55.0741 25.3L54.449 25.3053C54.3559 25.3064 54.31 25.3529 54.3112 25.4448V25.9993C54.3112 26.0628 54.343 26.0958 54.4066 26.0982L54.8322 26.107C54.9605 26.1093 55.0258 26.1747 55.0282 26.303L55.0317 26.4037C55.0341 26.5202 54.9764 26.5791 54.8586 26.5803L54.4083 26.582Z" fill="#575567"/>
<path d="M58.4404 26.8046L58.4651 27.7458C58.4687 27.9012 58.3933 27.983 58.2391 27.9913L58.1667 27.9948C58.0113 28.0031 57.9336 27.9295 57.9336 27.7741V24.9115C57.9336 24.8985 57.9362 24.8855 57.9412 24.8735C57.9462 24.8615 57.9536 24.8506 57.9628 24.8416C57.972 24.8325 57.9829 24.8254 57.9949 24.8207C58.0069 24.8161 58.0197 24.8139 58.0325 24.8144C58.8342 24.8303 59.8249 24.7296 59.6607 25.9358C59.5841 26.4938 59.2221 26.7416 58.5746 26.6792C58.5575 26.6774 58.5402 26.6794 58.5238 26.6849C58.5074 26.6905 58.4924 26.6995 58.4798 26.7113C58.4671 26.7231 58.457 26.7376 58.4502 26.7537C58.4434 26.7698 58.4401 26.7871 58.4404 26.8046ZM58.4492 25.3918L58.4457 26.1194C58.4455 26.1358 58.4485 26.1521 58.4546 26.1673C58.4607 26.1825 58.4698 26.1963 58.4813 26.208C58.4928 26.2196 58.5065 26.2289 58.5216 26.2352C58.5367 26.2415 58.5529 26.2448 58.5693 26.2448H58.6717C58.7316 26.2451 58.7909 26.2363 58.8463 26.2191C58.9017 26.2018 58.9521 26.1764 58.9945 26.1442C59.037 26.1121 59.0708 26.0739 59.0939 26.0317C59.1169 25.9896 59.1289 25.9444 59.1291 25.8987V25.6197C59.1295 25.5274 59.0819 25.4388 58.9968 25.3732C58.9117 25.3077 58.7961 25.2705 58.6753 25.27H58.5729C58.5404 25.27 58.5092 25.2828 58.4861 25.3056C58.4629 25.3284 58.4497 25.3594 58.4492 25.3918Z" fill="#575567"/>
<path d="M72.3339 27.585L72.3427 27.8534C72.3432 27.8674 72.3408 27.8813 72.3358 27.8944C72.3308 27.9074 72.3232 27.9193 72.3135 27.9294C72.3038 27.9394 72.2921 27.9474 72.2792 27.9529C72.2664 27.9583 72.2525 27.9612 72.2385 27.9611H71.0554C71.0277 27.9611 71.0012 27.9502 70.9817 27.9306C70.9622 27.9111 70.9512 27.8846 70.9512 27.857L70.9547 24.9238C70.9547 24.8964 70.9654 24.8702 70.9846 24.8507C71.0038 24.8312 71.0298 24.82 71.0571 24.8196L71.3821 24.8125C71.3959 24.8123 71.4096 24.8148 71.4225 24.8199C71.4353 24.8251 71.447 24.8327 71.4569 24.8424C71.4667 24.8521 71.4746 24.8637 71.4799 24.8764C71.4853 24.8892 71.488 24.9029 71.488 24.9167L71.4792 27.3943C71.4792 27.4081 71.4819 27.4218 71.4873 27.4346C71.4926 27.4473 71.5005 27.4589 71.5103 27.4686C71.5202 27.4783 71.5319 27.4859 71.5447 27.4911C71.5576 27.4962 71.5713 27.4987 71.5851 27.4985L72.2279 27.4843C72.2553 27.4839 72.2817 27.4942 72.3015 27.513C72.3213 27.5318 72.333 27.5577 72.3339 27.585Z" fill="#575567"/>
</svg>
